{"title":"Dracula Untold [2014] (No Cinavia) BluRay REMUX AC3","uid":11794834,"size":20471188849,"categoryP":"video","categoryS":"hd___movies","magnet":"?xt=urn:btih:a0522d605d28be9cd187b63af8068686f5fa4731&amp;dn=Dracula+Untold+%5B2014%5D+%28No+Cinavia%29+BluRay+REMUX+AC3&amp;tr=udp%3A%2F%2Ftracker.openbittorrent.com%3A80&amp;tr=udp%3A%2F%2Fopen.demonii.com%3A1337&amp;tr=udp%3A%2F%2Ftracker.coppersurfer.tk%3A6969&amp;tr=udp%3A%2F%2Fexodus.desync.com%3A6969","seeders":4,"leechers":0,"uploader":"AlienMethod","files":6,"time":1428095109,"description":"MKV (h264/AC3)\n[h264 Muxed From AVCHD BluRay Source]\nCinavia Removed/CinExHD [DTS --&gt; AC3@640kbps]\nEnglish Subs Incl.\n\n\n&quot;As his kingdom is being threatened by the Turks, young prince Vlad Tepes must \nbecome a monster feared by his own people in order to obtain the power needed to \nprotect his own family, and the families of his kingdom.&quot;\n\n\n\n\nGeneral\nUnique ID : 232161863379521246168590303425273031064 (0xAEA8BF9B40FCB54AB7536A201D786998)\nComplete name : F:TorrentsDracula Untold [2014] BluRay REMUX AC3 \n(NoCinavia) 1080pDracula Untold [2014] BluRay REMUX AC3\n(NoCinavia) 1080p.mkv\nFormat : Matroska\nFormat version : Version 4 / Version 2\nFile size : 19.1 GiB\nDuration : 1h 32mn\nOverall bit rate mode : Variable\nOverall bit rate : 29.6 Mbps\nEncoded date : UTC 2015-04-03 18:18:12\nWriting application : mkvmerge v7.2.0 ('On Every Street') 64bit built on Sep 13 2014 15:52:10\nWriting library : libebml v1.3.0 + libmatroska v1.4.1\n_STATISTICS_WRITING_APP : mkvmerge v7.2.0 ('On Every Street') 64bit built on Sep 13 2014 15:52:10\n_STATISTICS_WRITING_DATE_UTC : 2015-04-03 18:18:12\n_STATISTICS_TAGS : BPS DURATION NUMBER_OF_FRAMES NUMBER_OF_BYTES\nDURATION : 01:25:02.656000000\nNUMBER_OF_FRAMES : 958\nNUMBER_OF_BYTES : 31602\n\nVideo\nID : 1\nFormat : AVC\nFormat/Info : Advanced Video Codec\nFormat profile : &lt;a class=&quot;__cf_email__&quot; href=&quot;/cdn-cgi/l/email-protection&quot; data-cfemail=&quot;175f7e707f575b233926&quot;&gt;[email&amp;#160;protected]&lt;/a&gt;&lt;script cf-hash='f9e31' type=&quot;text/javascript&quot;&gt;\n/* &lt;![CDATA[ */!function(){try{var t=&quot;currentScript&quot;in document?document.currentScript:function(){for(var t=document.getElementsByTagName(&quot;script&quot;),e=t.length;e--;)if(t[e].getAttribute(&quot;cf-hash&quot;))return t[e]}();if(t&amp;&amp;t.previousSibling){var e,r,n,i,c=t.previousSibling,a=c.getAttribute(&quot;data-cfemail&quot;);if(a){for(e=&quot;&quot;,r=parseInt(a.substr(0,2),16),n=2;a.length-n;n+=2)i=parseInt(a.substr(n,2),16)^r,e+=String.fromCharCode(i);e=document.createTextNode(e),c.parentNode.replaceChild(e,c)}}}catch(u){}}();/* ]]&gt; */&lt;/script&gt;\nFormat settings, CABAC : Yes\nFormat settings, ReFrames : 4 frames\nCodec ID : V_MPEG4/ISO/AVC\nDuration : 1h 32mn\nBit rate mode : Variable\nBit rate : 28.4 Mbps\nMaximum bit rate : 33.0 Mbps\nWidth : 1 920 pixels\nHeight : 1 080 pixels\nDisplay aspect ratio : 16:9\nFrame rate mode : Constant\nFrame rate : 23.976 fps\nColor space : YUV\nChroma subsampling : 4:2:0\nBit depth : 8 bits\nScan type : Progressive\nBits/(Pixel*Frame) : 0.571\nStream size : 18.3 GiB (96%)\nDefault : Yes\nForced : No\n\nAudio\nID : 2\nFormat : AC-3\nFormat/Info : Audio Coding 3\nMode extension : CM (complete main)\nFormat settings, Endianness : Big\nCodec ID : A_AC3\nDuration : 1h 32mn\nBit rate mode : Constant\nBit rate : 640 Kbps\nChannel(s) : 6 channels\nChannel positions : Front: L C R, Side: L R, LFE\nSampling rate : 48.0 KHz\nBit depth : 16 bits\nCompression mode : Lossy\nStream size : 422 MiB (2%)\nDefault : Yes\nForced : No\n\nText\nID : 3\nFormat : UTF-8\nCodec ID : S_TEXT/UTF8\nCodec ID/Info : UTF-8 Plain Text\nDefault : Yes\nForced : No","torrent":{"xt":"urn:btih:a0522d605d28be9cd187b63af8068686f5fa4731","amp;dn":"Dracula+Untold+%5B2014%5D+%28No+Cinavia%29+BluRay+REMUX+AC3","amp;tr":["udp%3A%2F%2Ftracker.openbittorrent.com%3A80","udp%3A%2F%2Fopen.demonii.com%3A1337","udp%3A%2F%2Ftracker.coppersurfer.tk%3A6969","udp%3A%2F%2Fexodus.desync.com%3A6969"],"infoHash":"a0522d605d28be9cd187b63af8068686f5fa4731","infoHashBuffer":{"type":"Buffer","data":[160,82,45,96,93,40,190,156,209,135,182,58,248,6,134,134,245,250,71,49]},"announce":[],"urlList":[]}}